GREETZ: UnDeaD - BadGirl2k9 - virusofsaten - foxyb - WICCYWOLF - lizzymwah1

VISIT http://www.seedboxworld.biz/ for all ur seedbox needs!

RELEASE NAME: Knight.And.Day.2010.R5.LiNE.XviD-SDTeam
RELEASED BY: UnDeaD & BadGirl2k9
SIZE: 429 MB

LANGUAGE: English
IMDb: http://www.imdb.com/title/tt1013743/

PLOT: June Havens finds her everyday life tangled 
with that of a secret agent who has realized he isn't 
supposed to survive his latest mission. As their campaign 
to stay alive stretches across the globe, they soon learn 
that all they can count on is each other. 

COVER IMAGE: http://bayimg.com/oApOOAAcb
SCREENS: 
http://i658.photobucket.com/albums/uu309/BadGirl2k9/screens/vlcsnap-2010-09-17-23h41m13s227.png 
http://i658.photobucket.com/albums/uu309/BadGirl2k9/screens/vlcsnap-2010-09-17-23h41m18s46.png 
http://i658.photobucket.com/albums/uu309/BadGirl2k9/screens/vlcsnap-2010-09-17-23h41m26s110.png

General
Format                           : AVI
Format/Info                      : Audio Video Interleave
File size                        : 429 MiB
Duration                         : 1h 45mn
Overall bit rate                 : 572 Kbps
Writing application              : MEncoder SVN-r22963
Writing library                  : MPlayer

Video
ID                               : 0
Format                           : MPEG-4 Visual
Format profile                   : Simple@L3
Format settings, BVOP            : No
Format settings, QPel            : No
Format settings, GMC             : No warppoints
Format settings, Matrix          : Default (H.263)
Codec ID                         : XVID
Codec ID/Hint                    : XviD
Duration                         : 1h 45mn
Bit rate                         : 496 Kbps
Width                            : 512 pixels
Height                           : 224 pixels
Display aspect ratio             : 2.25:1
Frame rate                       : 20.000 fps
Resolution                       : 8 bits
Colorimetry                      : 4:2:0
Scan type                        : Progressive
Bits/(Pixel*Frame)               : 0.216
Stream size                      : 373 MiB (87%)
Writing library                  : XviD 1.1.2 (UTC 2006-11-01)

Audio
ID                               : 1
Format                           : MPEG Audio
Format version                   : Version 1
Format profile                   : Layer 3
Codec ID                         : 55
Codec ID/Hint                    : MP3
Duration                         : 1h 45mn
Bit rate mode                    : Constant
Bit rate                         : 64.0 Kbps
Channel(s)                       : 2 channels
Sampling rate                    : 44.1 KHz
Stream size                      : 48.1 MiB (11%)
Alignment                        : Aligned on interleaves
Interleave, duration             : 26 ms (0.52 video frame)
Interleave, preload duration     : 522 ms


GROUP NOTE: Big thanks to seedboxworld.biz for the seedbox!

